<mxfile host="app.diagrams.net" modified="2024-07-05T13:23:43.886Z" agent="Mozilla/5.0 (Windows NT 10.0; Win64; x64) AppleWebKit/537.36 (KHTML, like Gecko) Chrome/126.0.0.0 Safari/537.36" etag="3lWf69ddUGRzhJxCgQio" version="24.6.4" type="device">
  <diagram name="Page-1" id="5M_sYfryGPYlzi6g7Jec">
    <mxGraphModel dx="989" dy="509" grid="1" gridSize="10" guides="1" tooltips="1" connect="1" arrows="1" fold="1" page="1" pageScale="1" pageWidth="827" pageHeight="1169" math="0" shadow="0">
      <root>
        <mxCell id="0" />
        <mxCell id="1" parent="0" />
        <mxCell id="gLKNbr4x9sqTOGluGkTr-1" value="" style="shape=image;verticalLabelPosition=bottom;labelBackgroundColor=default;verticalAlign=top;aspect=fixed;imageAspect=0;image=data:image/png,iVBORw0KGgoAAAANSUhEUgAAAH0AAACBCAYAAADt0LVHAAAAAXNSR0IArs4c6QAAAARnQU1BAACxjwv8YQUAAAAJcEhZcwAADsMAAA7DAcdvqGQAABR3SURBVHhe7Z0JeFvVmYa/eJFXyZYs77sdnA0MWVlC6AQopJ2wlGGbtrSkgcAkNEPLmgJhDU3L1pZMCNBM25QZHiikhYGGFAZCgATCkpDEMYmXeJVt2Za8yLJlyXbPf3QUa/Mu21e6981zH91zLDvS/e75l7PdGXHn/dsAFGRFmHhVkBGK6DJE1qKHhYchPDJClOSDbH16+twCpM3JRZQ6DqbqBlR+chiOXrv4aWgjL9FnzIA6ORF5i+dBk54kKp302e048cGX6Ggyw2HrFbWhiWxEj4xSYc6KcxCXlICwsKG9Wq+1B+V7voLZ0CxqQo+QFz08Ihwps/KQeXoBM+WxonZ4Bvr70VJRj/ojFegytYva0CF0RZ8BqPVazLpoEaLiPcWewcz8wIDX12Z1rFIUnNB76g6VMfHL0RdC/j4kRY9JiEfB0mJoUpN4hO6ORqtjRxJ6rFbY7TbeqiMiIhEdF8dFNxrq4GD+3Z2eji40HKuEoeSkz40RjISU6KrYaKTPzkPGmTOZ2OGi1gmJmpSchpj4eFHjn74+B0zNRnSaTejv6xO1TizGNlR9XoL2hhZRE5yEjOipRbkoPL8YM7yCNBI/LSsXsWoSm5nwUUKmvaH6JKyWTlHjhOotzSYce+ezoE3xgl50bXYqsufPYqmY1kdTXWoaN+dkvscDCWzt6oTZ2MTdgTuOHjsaj1eh+ovSoDP5QSs6+e3cJXORlJsuapxQS4+Ni0dqdu6wqdlYaWtpRltrs4+/73f04cSHLMWrbeLnwUBQil649EwkF2YhXOXZhRoZFYXUrBxERcfwCD3Q9DkcXHgz8/nucItg6uDi06vUCRrRKd9OnpmF7AWzecDmTqQqCglJeiSyYyqwdVtZsNeErg5PgQfYP+PxWhblV0hafOmLzlpsRGQEzrpqOcu3Y0SlE2rNGp0OyWmZ/H1TTY+1C/VVlTzt84C1fPL11Lnj8zMJIGnRYzROv63LTfMx1+rERCTqU7gpn076WFrX2WaCiQV73iled5sFDaUn0VBSKWqkgSRFj4qLYT47EzmL5rLAzE1sJryK+e2k1HTEqTWiUhqQ+Mb6WnSzFK/fq3VbzR0o/+hrWFraJNHyJSd69llFSD+9EJHRKlHjhMRPychGvCbBJxeXEraebhjrathrj6hxMtA/gK7WNhx56xMfizDVSEN01piT8jKQMa8AmjTPIU/qXFEnaqFNThl3vj0dUI+emaV5vTZP8fvsDhiOlLMcvwa9Xd2idmqRRJOJUKmQt2gONKk6UTNIVsFMJKdnBpXghFqrQ1bhaYiJ8+z2pZk6mcya6XJSRc3UIxk7SV2aPezO9+7abG0woNfLVAYD5NdNxkaW3g22ZqqjXL+/b3r9uqScIwU59h4bN3suv9fFAqOa8uNobWxgN4T0Z7SQsF0d7agp+4b34vX39/HOmz5HHxdbCj22koyIKBK2MeFpFgsFQIS5xYiaihNoN0l3hMtus6G+shwNNVXO7lr20UlsOkh4qSBJ0VVR0byXjUyhrcvKWn8vv2jU+psN9ahjF5ZakySaDYPEbqqrZRbpBI/eCWrVDvb56XNHRKp4n8JkdA2PB0mKnqBNQnpOHovadexChXGzTi2fIl8SmnrCqDU11FazFjV9Jp9uwnaTCbXMAlEHzcAAme8B9pmY32ZmngZ8NAlaZLNgNFGvZ+JLIxiVhujUitlFckENglqFjqVpJH4cy83J3/d29/Bgb8DhfC/3nax1GQ21p2KAqYL+79qKMmZ52P/NPpvLb9NBUNSemV8IfWYmZnjN3iFcbms6kE5LH+IaUOvQp6bzjpmomFguPp/q1G3jF5vE7hCtrYPlxpPd49XTbUUjWRl22HttXGwy5S6/Ta4pJSOL36w06jc0iugjEhMXh7SsHOjTMhBGJp8FSjaLFX1ijrqduQDqBq06UeqRJgUKErSF/f061rotFE9QnRCbbj5umVJSWW4+E/GJibzDSaoEjeguqM89I6+AD6WSz+xlonPxRX5PwV/dSWcETQHWhGFiU+rFUzBmSXgVE5mbcmFVNCz2yOR+O5mXpU7QiU6ER0QgUadHenYeYmLjeUvrZfk9BXtk7kkU8rnVTCiz0chvhPHQ3dWFWhYztDQauCU55bd5vj3AR/gy8vKhz8jgA0HBQlCK7oK6b5MzMpGZW8BTPBLcZnXm9y5ajQ28c4f8vTt0o3R1dvB4wO6VAXBrwdJCQ1UFbLYep9jsb7v8Ng34pGTnIp0JHh0bJ34reAhXZc99SJxPGzSowqc/iRWkZMJJxNFAvpR+nyL8iIhw3iJJNKe5n8EjZxKKBKaWGxY2g90ITcz/18DS1sbr21tbuJ9m72avHSznruZ/h+CmnLVsirtI7ESdDqmZOYiOGduULPoM7tOq2+qM6GqdntUzQd3S3SH/Tnl9Zl4h1BoWSDHIp5O/H2AtlOjusqCxtkZ07PCqU1D/Pi10MDc3nUrBHHanKSdxyZTnFs2GjmUSwb68OWREd4emPpO/j4vXcPF6mMkns08mekTY+7nf5jfKALM4Kj7ZMiO/IKCza6eTkBSdoBxZn57Bh2Upd6bpyTSQQwM6/nJ5ujnopnAIv01DuRSNZ88sQqxaPSZTLnVCVnQXsfFqpLGgi0w/cWoI120NOplzHqSJXjISnFo25d2hSMiLTvBWOuDWullLtlN+38Xye+a3fca3qRs4REy5P2QhOkHpnTd8fNtPHzgJHkrm3BvZiD7aFJCgbl5F9BAgOiaW99+PBEXoFP0roocAJCKthKEJDcNBXaqjuTmCGdmITpCvzsjN59Op2V0gap2Q0DR7NV507IQyshKdoBYfr05gfttTdI1OH1SDJhNBdqIrKKLLEkV0GaKILkOkI3ropsVDMH1fWBqis0jafdiyf2D6ZopOGuw7uX8tj3X3U4wkzTtNROQTHUIEmsnT3GCY1oUZ7khSdIfDztd202soILWbWJKiE7RdJ01vCnZoTlxnm1mUpIFkRSdoImOwQztR0CQNKSFx0S2wBrHwtGrVaKgXJekgCdFp6tLx97+AsayWz09zp8VQh6b6WvRMwlKlyYJaNm2iQEugvDdS6DZ1oOLjQ2gsrRI1U48ktxSbffESxGrjeSrnjjpBC40uCRERE5uCTH62vqqCixMZFc1vfdpLNk6tFu8YH/T3aEsxWqvuTZ/NzveUq/+6TNRMH5IUnYZA1Sla5CycDVWc55ag4eERTPwEJCSNf93YZIhOK2lbGw2w0fo5N2tFo3qGkko0sZZNc/ClgCRFdyfltBykzMqBKtZz2FNF+8Hq9HzT/rHOcgmk6BSotbe2+kToNM3aXN2Iqs+P8WXVUkLyorvIOWsWkk7L9BGY5r7RFOexLEQIiOisNZubm/leON702+0o2bUfVrPnAwKkQtCITsQkqpExLx+aDL2H+HxihIaZfNbyaUXrSExU9A6zGR2mFtbKPVuwo6cXVQdK0HrSIGqkSVCJ7oI2GcwonsluAk/TTq1dm5zKN/n3foaLO+MRnbIKWhtHy5Z9nvLAgrS26gZuyp3LoaRNUIpO0FOYdFmpyFo0y0dgmvxIq1NihlhGPFbRyT/Trla0wtU7pexoNKF871eS89vDEbSiu4iMiYK+IAMpRTk+q0lpSRPtVKWKZsK6MVrR6X0UoLW1tvBBE3csTOz6kgq+5DjYCHrRXYRHReK0ZfMRw/J772CP1rHRUx9cwd5IolNrpn1raA8b72e20Fq4hoMnYPhm+jpXJkrIiE7QGDU9SzV7wSz+YB93aFEibQBE+8OQuR5KdFqn3tLYwB/Z4W7KaQlUzRfHYK5p8tjpIhgJKdHdoT3jk3JToYrzfPIDbS5Ac9tNzY1cVJfo9CivsPAItJuaPda30Xva65tR+0UprO3BP+pHhKzoBAV4mcWF0M/M8jH5Llyi+4Na9OE39rK827ndZ6gQ0qK7iNcnQl+YBR1r+d74E50icXqorvFEDd8rLtSQhegutFkpyJpfxCN+F+6ik1lvb2jG8fc+d1aEKLISnYiMjkJiZjIL9orYt59xSvROoxk1B0pgmaYdn6YS2YnuTt7Z85CQnozGY5VoYqZcLshadLkyRNyqEMooossQRXQZooguQxTRZYgiugxRRJchiugyRBFdhiiiyxBFdBmiiC5DFNGniXk5mVhSVICClGTER0/tTpUBH2XTJ2pw3+rrRMmJrdeOJ3fsREt7h6hxUpiegtu+f4UojUxPby+s3T2w9thQ19SKL0tOoNzQJH46PDp1PB5Y8++iFBi+KC3D//x9jyj5Eq2KxLIz5+LCJWdiXmEOkrUJ0LODXunJUu60mNtx/GQdjlZUY+f/78enJcdPPewv0ARc9IKsNBx+ZYsoObFYu3Huj+/ESS+Bls4rwu4XHhel8fFNZS1e/Msu/O3jA2gytYlaX3JT9Cj56zZRCgwvv/Mhbn70WVEahKbjzc3LxqZ1N+Cic+YPOT9vON7/9BDW/uo51DfT05oDO/od9OZ9dkE2nrpnDT75wxP4yWUXi9rp5dbvXYp3t23CxecuGJfgxIXnnIUPf78Z32U3TaAJGZ+eptfimbvW4N5VV4ua6WH9dZfhiTtuhiY+VtSMn9QkLZ7fuB6XLV0sagKDJEXvtTt4HOB92Fk9PRxvqM0Fw8PDcP9N1+OWq1aImpGxO/rGfdBiCXcK0lJw7+prRGkQMs/0+f/63ie4/ZfbsHLtRsxceRPyv7MKl6/biHue2o6y6nr+3bxJ1MTjkXU/RGwAgz1J+vQr1j+Mo5W+c9Y0cbHQJqihZRfiokXF+MG/LkeC2neR4sm6Rpxx3W2i5GQon/7gszuw+8AhURobbZYu1BlbRQl4/hfr+Gfy5vnXdvGjor5xyOAsKjICC+fMxPYH/xPZaZ67bNBNc8cTL+CFN94VNRNDki29k0XoTSya9T7K6hpwgEXsu/d/hbuf/SPO+9EdeGvvAfFbg+SzG+/iBWeI0vDY7HZ+g43ncBc8MT4OyxbME6VBStn7frn9VZyoNQwbjduYFdt3+Buse3wrut2eGUdQXHDtpRcgfAwbLwxHUPv0amML7t+yg6VyvjtL/sviYnE2NZAVio/1XEJFbPnfN9HSMfodKfYcLMFbez4VpUGWnDEL2cxaBYKgD+TKmcl8bfdeURrk/IW+rW4yUTHzHOlnF4wj5dXibHRQnPDrP+2Eo8+5uUFnlxVHy6qw5/PD0PpxZeMh6EUnjrCL4s185h/JT04V9IhuOryZnZspzkZPaXUdfrppK+Zfsw7Z37kR59x4Jy7/+WM4WHZSvGNihITodU0t4mwQuvwxfp66ONVcs+ICcTY2/rz7Q5SxwNcxCWvpQkL0OQXZ4mwQc4cFbcw0ThWm9k60sf/Tm2+fuwC3fO9SUZIGISH66TPzxNkg+w4eE2dTQysTfT+Lvv3x65+vxq7fPYgVS84SNdNL0Is+Jy8L373At8dq36GpFZ06Ox554WU0m3wXQFKqtWzhGXjtmftR984f8d7WR7Ftw1qsv24lli84nQ8GTSWS7Jy58OYNOHBs+D1U6WF6aUlaPL7uBlx9yTJR64R6thZdv575xEZRM3TnzMHSCnE2NmiE7/ZntovSIHf94Eo8uPaHojR69rOb9I3392PXZ4eYa+pEu8Uqr1G2oUQnoUm8OfnZuGTpQlyx/Bw+TOkNpTgU8boT6FG2V/6+B6s3eX5PQsXStpXnLcTWB27zm7ePBA0bt5o78DHL1+/6zXYWlwR+92tJil5R43/HxRTWstVee8j446qfPYZ/eHWtTpXoLhazlPGeG6/G0vnzRvWZ/VHX1IyHn38ZL/vph5gIkvTphTkZfo+RLh71Ua99bIuP4NPB56XluPqezZh95Rr8bPM27P+61DlIM4ax8azUZLy4cT02sJsnkAT9JAoXB4+V4xf/tQOfsIvr78IO1dLLqsb35IWPvzqKnz71oiiNDr1GjcLsdOSkp6C4MBdnzspHcVE+n00zHB3Mv9/88G/x9r4vRc3ECFrRaVDC2NqGmgYj/vTme9i551P0eu3q6M5Qot/79HZseX2XKE0Ps3MyceHiYlz2rbNxdvFs3qXrjaHZhPN+fAdaWGo4USQp+q0P/U6ceWK12WDq7ILZYoGZvXayIMfS3c3N5khIWXQXUZGRuP7i8/H03WsQpYoUtYN8f8MTeHPvZ6I0fiTp0/ccPIqX3t3rc+xkX5h+9jWLzmsam5nwllEJHizQMO9Luz/EtlffFjWe5KSP/2kW7oREj5wUoFnA3kfCOKZMUW5+33Mv+YypE94P+h8viugB4sCfn0bV2//tcex88j5Eek11Hi2mNs/p4oFEET1AfP1NpTgbhHoMxzO3jTp4dMxSTBaK6AFi36FScTYI+eDVK8c+LfuM/BzERE3esLAieoD4GwsyLV5bgtPctjtXXY0FRQWiZmRort0Td6wWJU9aAmTyFdEDRGOrGZV1DaI0CM1/f+nxu3DLlZfw4G64yY2FmWnYeu+tfD6cNxTYHThyXJQmhiJ6gOi0dmPVxmfQ6qc1kpl/8s6bse8PLM9+5n48t2EtHrjpOqxhN8J9q65hQv8H/u83G7Hn95tx+fJzxW958tCWHXw+YCBQRA8gx2sN2Lz9Vb/pFpn6jJQkfGtRMW5YeSHuYWI/fdcabGDi/+iyi7B8cTGfz++P19/9GC+8GZg574QieoB5buc7uPb2R9HeGZinQe/8x0e48eHfBrQTShF9EvjgcCnO/8ndfM67eZx95eU1Btz6yLO4ZfNzAV+1GvC+dwpWHvBan078asfrfNDAneKCHKz2M2lw0/ZXYAxw50SaLhEbmEn15qOvjuK1D/aLUuDRxsZi1RXfxrUrlvEFEWp20Lp1Wp8eER7Oe+CoFduYS6B44ERNPf6y+yO8+dEB9NiHHkCaCAEXXcE/NAc/LiaaH5HsPIJF8eFMdFrcQAsbaNEmuYTO7m7WssUvTRKK6DJE8ekyRBFdhiiiyxBFdBmiiC5DFNFliCK67AD+CSO7+Ha59HvBAAAAAElFTkSuQmCC;" vertex="1" parent="1">
          <mxGeometry x="84.95" y="450" width="76.55" height="79" as="geometry" />
        </mxCell>
        <mxCell id="gLKNbr4x9sqTOGluGkTr-3" value="" style="shape=flexArrow;endArrow=classic;startArrow=classic;html=1;rounded=0;entryX=0.5;entryY=1;entryDx=0;entryDy=0;exitX=0.5;exitY=0;exitDx=0;exitDy=0;" edge="1" parent="1" source="gLKNbr4x9sqTOGluGkTr-1" target="gLKNbr4x9sqTOGluGkTr-2">
          <mxGeometry width="100" height="100" relative="1" as="geometry">
            <mxPoint x="70" y="450" as="sourcePoint" />
            <mxPoint x="170" y="350" as="targetPoint" />
          </mxGeometry>
        </mxCell>
        <mxCell id="gLKNbr4x9sqTOGluGkTr-7" value="" style="shape=flexArrow;endArrow=classic;startArrow=classic;html=1;rounded=0;exitX=0.5;exitY=0;exitDx=0;exitDy=0;entryX=0.5;entryY=1;entryDx=0;entryDy=0;" edge="1" parent="1" source="gLKNbr4x9sqTOGluGkTr-2" target="gLKNbr4x9sqTOGluGkTr-12">
          <mxGeometry width="100" height="100" relative="1" as="geometry">
            <mxPoint x="380" y="290" as="sourcePoint" />
            <mxPoint x="130" y="140" as="targetPoint" />
          </mxGeometry>
        </mxCell>
        <mxCell id="gLKNbr4x9sqTOGluGkTr-8" value="ipdr push&lt;br&gt;ipdr pull" style="text;html=1;align=center;verticalAlign=middle;whiteSpace=wrap;rounded=0;fontStyle=1" vertex="1" parent="1">
          <mxGeometry x="110" y="190" width="120" height="30" as="geometry" />
        </mxCell>
        <mxCell id="gLKNbr4x9sqTOGluGkTr-11" value="store / retreive and pin data" style="text;html=1;align=center;verticalAlign=middle;whiteSpace=wrap;rounded=0;fontStyle=1" vertex="1" parent="1">
          <mxGeometry x="140" y="380" width="80" height="20" as="geometry" />
        </mxCell>
        <mxCell id="gLKNbr4x9sqTOGluGkTr-13" value="" style="group" vertex="1" connectable="0" parent="1">
          <mxGeometry x="63.21999999999999" y="40" width="120" height="120" as="geometry" />
        </mxCell>
        <mxCell id="gLKNbr4x9sqTOGluGkTr-12" value="" style="whiteSpace=wrap;html=1;aspect=fixed;" vertex="1" parent="gLKNbr4x9sqTOGluGkTr-13">
          <mxGeometry width="120" height="120" as="geometry" />
        </mxCell>
        <mxCell id="gLKNbr4x9sqTOGluGkTr-4" value="IPDR enabled Dev" style="shape=umlActor;verticalLabelPosition=bottom;verticalAlign=top;html=1;outlineConnect=0;" vertex="1" parent="gLKNbr4x9sqTOGluGkTr-13">
          <mxGeometry x="45" y="30" width="30" height="60" as="geometry" />
        </mxCell>
        <mxCell id="gLKNbr4x9sqTOGluGkTr-14" value="" style="group" vertex="1" connectable="0" parent="1">
          <mxGeometry x="364" y="40" width="116" height="110" as="geometry" />
        </mxCell>
        <mxCell id="gLKNbr4x9sqTOGluGkTr-15" value="" style="whiteSpace=wrap;html=1;aspect=fixed;" vertex="1" parent="gLKNbr4x9sqTOGluGkTr-14">
          <mxGeometry width="110.00000000000001" height="110.00000000000001" as="geometry" />
        </mxCell>
        <mxCell id="gLKNbr4x9sqTOGluGkTr-16" value="Classic Docker Dev" style="shape=umlActor;verticalLabelPosition=bottom;verticalAlign=top;html=1;outlineConnect=0;" vertex="1" parent="gLKNbr4x9sqTOGluGkTr-14">
          <mxGeometry x="37.599999999999994" y="22" width="34.8" height="66" as="geometry" />
        </mxCell>
        <mxCell id="gLKNbr4x9sqTOGluGkTr-18" value="" style="group" vertex="1" connectable="0" parent="1">
          <mxGeometry x="60" y="270" width="126.44" height="80" as="geometry" />
        </mxCell>
        <mxCell id="gLKNbr4x9sqTOGluGkTr-2" value="" style="shape=image;verticalLabelPosition=bottom;labelBackgroundColor=default;verticalAlign=top;aspect=fixed;imageAspect=0;image=data:image/png,iVBORw0KGgoAAAANSUhEUgAAASEAAACgCAYAAABDhtrSAAAAAXNSR0IArs4c6QAAAARnQU1BAACxjwv8YQUAAAAJcEhZcwAADsMAAA7DAcdvqGQAABSfSURBVHhe7d0HeBVV2gfwNyE9IYFQRCAhGFpoIfSisqu48qkIKoi4KyjigggWEFezSlmJ0gwiUqTJiiCyCCqLILiugAiIFAUpIkoNLQkhCekJ37wnJ26WjZJkztxzZ+7/53OfO2cSHvUw858zM6d4XTEQAIAm3vIbAEALhBAAaIUQAgCtEEIAoBVCCAC0QggBgFYIIQDQCiEEAFohhABAK4QQAGiFEAIArRBCAKAVQggAtEIIAYBWCCEA0AohBABaIYQAQCuEEABohRACAK0QQgCgFUIIALRCCAGAVgghANAKIQQAWiGEAEArhBAAaIUQAgCtEEIAoBVCCAC0QggBgFYIIQDQCiEEAFohhABAK4QQAGiFEAIArRBCAKAVQggAtEIIAYBWCCEA0MrrikFuO1ZhYSHlFxSI76KiIrHN31wuLDS+iwqJjFrgfVwZV4xv8efkN+8vLy8vL/FhPlWqUBUfH+Pbm6pU8SF/Pz/y9/cjP18/8vYu/h13JOqGP1xfon7ktvFddMWoo6IrxXVjHDpFxofrj39P/Fk+nEodUrxVVv1xHVXx9jbqgeumCvn4VDHqxZd8jY+/n7/x7SN/0x74/7FAHGPGtziuiuuLv0vKrOS7pE64vvgULPmUl7eX0X4wDiGuw+L68zG+vcmPjzHj+OLjjPfbgaNCKO1SOu3cs5cuJKfQhdRU8Z1sfGdezhLBwwfJfw6W4gDiA4T3lZxc/E/JCWUmhMRJxgeHPED4JOOTKyDA+BgHSFREBMU0bUwd2sRSdFQD+aetl3T2HB07eZLSMzLpUnr6L99cd2npGZSdnU15+fnF9SRPHt4uOZk4VUTocJ1xfRn1xvVYUkfipCpVX9cKIa4jPnl8fWQAGXUT4O9P19WqSU0bRVNsy+bUpmULsc8d8P/LN3u/o9Nnz9L5C8nG8XWRzicni/rLy8szji2jzoz6Kamv4uOMP8V19Es9Gd986lU+hIwEknVYcnz58IXOqD8+zvi7bp3rqGVMM2oV05RiWzQXge+OTIdQdk4Odb+7ryyZ8/WGf8qtytn+zW56Mn6sLNlHtbAwat+mNXVqG0etmzejBhH1LTtgps+dT++t+kiW7IGDqpkRSO3jYim2eQzFNGlMNcKry5+6VnZ2Dj30xFN04tRpuccefI2gat0ixrjotRHBHtO4EQUFBcqf6oUQcjPcQuAr/4ujnqSIenXlXnXsGEJX4yv//93yexrx2MNU3QhwV7JrCF0ttGpVGj54IPXu+Qftt214MO1m+JqwZ99+GvDnJ2jMhAT64ehP8idQgm+n12zYSPcMHELPv/wqfX/4B/kTKK/0jAyaNGMW9X9sOC1ZsUrcguuCEHJTfFBs2rqNho5+nj7fvJXy8wvkT6BEVnY2fb5lKw1+cjS9MW+ROLGgYrhFN3PBInGc6WrdIYTc3OWsLIp/ZTIteHeZ3ANX49bjslWraeATT9OBw0fkXqiI7w8dpqHPPk/fHTgo97gOQsgG+E3K2++toHnvLBVvWuB/8Zs6fvM36qUJ9IXRghRdBaBCUlIv0vAx8bRj9165xzUQQjbCQbR3/wFZgrKkpqVRfMIk2rFrt9wDFcGPAcaMe5nOJ6fIPdZDCNkIt4JemPgqnT5zVu6BsnBfnfiJk2nTV9vlHqiInNxcGjtpKuXm5sk91kII2Qx3ilu+2t6v2F2Bn6UlzplPFy9dknugIvbs+542b/9alqyFELKhdf/6wrhaueYqZWdnzp2jp+LHan39bFf8sD8hcQZlZGTKPdZBCNkQv4pesGSpLMFvOXTkKH2y8XNZgorgLhAbN2+RJesghGxq1dr14pYDrm3h0uW/jNmCitmybYfcsg6GbZQhvHo1uuu2HrJUTl5E+Uaznx/mpWdmGrcC5+nnEycoKytb/oJaPBborcTJ1LJZU7mnfFQN2wgLrUrVQkPFNg88Ld31n8e9XT0K3s+Hf8ebCouuiAefWUaAnruQ7LIgHfzHB2jYoD/JUuWpGrbBsyj06H6z2Oa/y/+uPy8x40LpE5PLXsY/fLrm5ecZ9ZYtnnedNY4z/m/hAdpWCAoMpE9XLBUDYq2CECoDD5Z8Z/YMWao87qvy7f7v6cNPPqXtu3bTxTS1D0njnx5Jfe64XZbKR1UIqTqpeSQ690vZ9NU2cevEsx5Y0WqpVbMGvTvnDdNjzVSFEIfOtnVqXjDwOfjVzl3GcbZedDrkWSNUSoh/jm77XXFgWgG3Yxbi6RbiWrWkcc+Nondnv0FdO7STP1Fj17f75JZ91a5Vk3rd3oOmjPsrLTGC/9knhlJgQID8qTopKam078AhWXIWrq9bb+pGMxIm0Jypr4rAVemzzV/KLWsghFyAw4gPjInxf6HO7dvKveY5aeAm38JVrxZGfXvdSfOnTxHTdajErdKlK1fLkjNxHfIcTMvnzabohlFyr3n7Dx6y7HaPIYRcKCQ4iMaNeUacbCqcSkqiLOP2wGmaRN9AC1+fJk4olXh2gmMnTsqSc1UNCaYRgwfJknncHYQnvrMKQsjF+JnEjZ06ypJ5x08686TimQL/9vxoMe+NSpu3W/+2xx1wi7uiLy1+DffUV/2cqTSEkItxk/m+XnfIknmnzpyRW87TMDKSnhk2RNSZKnv3ecbYO37wreo442lqedpfqyCENGjWqBHVDA+XJXNSLzp7WMLNXTorncqVu02YfCFsG82bNBYT35vFLSHuVmEVhJAG3A+k8Q0NZcmclNRUueVM/HxjwD29Zck87r+luquEu+I5pIMDzc8jzaFt5RQyCCFN6te9Xm6Zc/GSdQ8M3cUD9/amAEWv7bkP0uZtnjG6Xiz/o6CToQihIutajwghTWqEV5Nb5vD4HqfjZZO6KOza8K/NW+WWs/ESQNwb2yy0hBwqJDhEbplTWOAZMy2qetPDdu/bb+lJ5S74tt9L0UN9K5+jIYQ04VfQKuTmWffA0J00a9xIbpnHY/x4eIjT8Vgz/scsXoaKW6NWQQhpwgMSVfCQFz0UWV/tGmypF9PklnPxqsKFvMS5ScWrCVsXFQghTXLzVE1K5hkpVLtmTQoMULcUdKoHvCHjpaf5YxYvNc1LS1sFIaQJz4OsQoC/+sGe7qhkZVpVPGHaV55Rkqf9MIs7Pqq8AFwNIaRJRqaaaTOvnrfHyRop6lvF0jygJZSTk6NkPitedjskRM2LlLIghDRJTlHzYDTAwiuUu2mkcGS4qvp3ZyeTkpT0dOYLHU9iZxWEkCaqxnyFV1PT38gOGkZGyC3z0iwcFe4ueDI9Fa/Wo6OiLJnjqQRCSAM+MH748agsmcNT0XqKWjXUTdZ1yeHr1v98/IRYiVaFO3r8Xm5ZAyGkAa/3rWq4RXUPagnxbYGfn68smZOZeVluOdOcxUvkljmBgcWzNloJIeRiPMPfyjWfyJJ5detcJ7ecz8tL3atip65UwstBvTb7LWWtoI5xcUYQmR8E+1sQQi7Gcx1v2/mNLJkXFVFfbjkfD0NQ9TbQaWPueGDulzu+psFPjqb3P1wj95pndSuIIYRciHvpvjRpqnG1UvN6vk7tWhQSHCxLzsdDEHhQpgo8dEMnfi7ISy1X5sOryvA6+x+v30iLli4Xx1TfwUNp9NiX6cTpJPlvMO+GBpHUvVtnWbIOlvwpg6olf0rwLVh6ejqNGvs32n/wsNxr3i3GVWrSSy/IUvm425I/FcGtlweHjqCks+fknsoLCw2ljSuXyVL5qVryx90F+PuLJZIi69eTe6yDlpCFcnJyafO2HTRu0jTjSjVMaQCxuFbqehDbAfea9vZSc8iqeHXtZP379FI259W1oCVUhlo1wun+3r1kqXy4GrljGN9qXUxLo+NGs/inY8ctW36Yu9LPnpIg1jWrCDu3hPhY++OwkXQqyXwfK3/jSr9lzQeyVH5ObwnxfN49b/0djXv2GRH6roAQsilennfV3xdQeAWXD7JzCHHIDxz+FB07eUruqTyEUNn63X0nPTV0CPn5qukKUR64HbOpbh3bVziA4D/ylM1i4AwNG0SKJZbGjHjcpQHEEEI2xBNMPT30UVmCynDVrYY741v6aqGhNNRo0fJD6J63WNsz+tcghGzoxs4dqVbNmrIEleHr4qu9u+AlyaOjGtBD/e6jWZMTaMXCufSocWutYi7qykII2QxfvR64525Z8iz8+FLVPEw8UZcn4ZbfpLEv0Kf/WEbvzZtFIx97hNq2bknVwkLlb+iDELIZvmpV9I0Y/C9PawlxgCckzqQJ06a73UN1hJCNtG8TSw/e18djn2fwe1xVq2TwbYmn4Yn0vtz+Nd0/5HHRu3rPvv1u0V8KIWQTvGJr4stjxat5T3XlShHlF6gZbqFqNL4dcd+1Ldt30ONj4mnpB6uNOi2QP9EDIWQDXTu0pxmvTBBd6T0ZX7VVTNzOuJ+Qp+MwenPBYpowJdHSteavBSHkxrjn9rCHH6LXE8ZTzfBwuddz8Z0DT96uQlCgZywQcC0cRBu+2Ewz3lpIubl6+k4hhNwQP/Ppd/dd9O7cmfTIgPvlXigqKlR2xQ4OCpJbwFatXUcrPlY3BUhFYNiGm6geFkatW8RQp3Zx4vbLqsnK7Dxs4/SZs3TPoCGyZE5lZiBgqoZtcFeLbesq/vfArZX0zAw6nXRWzNDJ80irmq+cZ+l8Z9Z0uq5WLbnHNdASKgPf+gy4tzd1ad+O6tetKxbeqxFeXfSpqBoSLKa89Pf3E695+WDiNy38Kf3WirdL9nEPZ/59/nMhxp/neaF5LqDYFs1p8IMP0KI3XqN17y+hqeNfpL697vSo2RIr4sy583LLvNCq1i1hYyU+jniu7TatWtDA/n3pg8XzqHtXNXP+8MDrcZMTLRt0/WvQEipD6fmEuHp4tVS+AvG673l5+aLMneYKCguoIN/4FBaK3+O/vCtyRVSecoIDiD88GyAv+8yhxd98KxAUFOjyMTrMzi2h9z/8mF6bPU+WzHnUCP+hD1f8v193S6gsPFVtfMJk2rZzl9xTeXxMLnh9qtK1/68FLaFr4BDht1K87hK3iHiOFe723rTRDdSiaROKbdmc2sW2ovZtWlPHtm2oU9s48ekQFyv28c9aN48xfj9azFRX7/o6okWlI4Ds7sefj8st88KNlq1T8EUt/umR4pbeLH7wz3NguRJCCGzj4OEjcss8dxiuoFLtmjWoc/u2smTOPzd8JrdcAyEEtsC3/UePHZMl86o7LIS4xf6nfveKb7POnr9AhxWti1ceCCGwBZ5XulDhA1MnrtfGver5tl8FV96SIYTAFo4eU/c8iHFHUCfqouiWbPd3+6jARcM5EEJgC4d++FFumccBFFq1qiw5S0zTJkpuybhPVlZ2jixZCyEEtrDLuDKr0q1jB7nlPA3q1RWT1Zt17vwFSrmYKkvWQgiB2zvy0zGlD0pv7X6j3HIe7gISGGB+XBz3dluz3jVvyRBC4NaKiq7Q/CVLlfXi5T5fHdrEypLz+Pn5UbdO7WXJnDUbP3NJ72mEELi1E6dP084938qSebx2v4rbFXfWp+ftcsucS5fSRSvUagghcFv8dmbh0uViWIIq0Q2j5JZztY1tRSHBwbJkzncHDsgt6yCEwG0t++BD2vDvTbKkRud2al5huzN+OxYVWV+WzNl34JDcsg5CCNwOPwfi+W3efm+FGBisCk+N26WD80OIRUepafHtO4gQAg/CgZN2KZ1mL1pMk2bMUnobxu7ocYtj+wddrWWzJnLLHO4vdOzkSVmyBkII3AKPV5q16O/08MhnaMk/Vsm96vAUKr17/kGWnI9nblBl9dr1cssamE+oDKXnE3IaVfMJ3dS5I/XofpOYN6mEl3fxBG6l8Zuoq99G8QNnXuEhOSWVTiYl0f6Dh+mn4ycsHSbA8+PMS5xserEAd5xPqCxFxml914CBlJx6Ue6pvDq1a9PKRXPF638rIITKgBCqvPIOGTB52FXYrMkTqUNcG1mqPLuEEJvy5hxa+fFaWao8noDvnTdfp8j69eQetXA7BkpxuJTn40rcalMRQHbTvWsXJePIcozgPX7qlCyphxACR+MWB8/F7Iki6l5PIcHmVxXhW7vt3+yRJfUQQuBoIx4dRK1i1D2ktROekriagilf2Rdbv7KsBYsQAse6sVNHGnBvH/L2Nn9LYkfcL6pBPTXPcS6kpNLBI+qmUykNIQSOxKPJE/76nOPHif0Wfh50Y5eOsmTepq3b5ZZaCCFwHF4NZdbkBCVTWtjdTZ07KQtiXmyxsLBQltRBCIGjtIttTW/PTMQCkhLPIskzB6hw8nSSJevVI4TAEXx9fGj44IE0bcKLpjskOk3b1q3kljnJKSnKlpwuDSEEtsbPPXjqiukTx9Og/v3EQoDw31ooGkfGr+o/WrdBltRBCIFt8S3X3Ncm0dypr4rVb1V0zHOiqMgIuWXeR+s/Vf5cCCEEtsId8HiRvzlTX6H358+huJYt5E/g1/AzIVUBnZeXr3xhRNNjx/hB1dBn/yJL5iyeOV1uVc7+g4do2uy3ZKnyoiIiaPxzo2TJWZauXE1rP/ucCvLzxSBS8cnnT5745gUGXbXe1G/hns7cz6VqSDCFhYaKdf1v634zNYluqPW1e05uLo2fkkhnz5+XeyrH27sKLZoxTZasN2HqdPr5xAlZMueRAf2pe9fOsmSe6RACe+G/7gKjOZ1vhBA3qzl4CgqLg4j38z4OoczLlynjcpaYZzjzciZlZGYZn0zKzcszTsQcys4yPsYJmZtnfIzvnJxcyjY+JROjFxUVGj/Po5LrL+/nE5j5+fqSj/EJ8PejoIBAsS589WphYj31ekZLJ7JePdHPJygwQDzj4alKPbm/j9MhhABAK1xeAEArhBAAaIUQAgCtEEIAoBVCCAC0QggBgFYIIQDQCiEEAFohhABAK4QQAGiFEAIArRBCAKAVQggAtEIIAYBWCCEA0AohBABaIYQAQCuEEABohRACAK0QQgCgFUIIALRCCAGAVgghANAKIQQAWiGEAEArhBAAaIUQAgCtEEIAoBVCCAC0QggBgFYIIQDQCiEEAFohhABAK4QQAGhE9P8hFY36dYZ8HgAAAABJRU5ErkJggg==;" vertex="1" parent="gLKNbr4x9sqTOGluGkTr-18">
          <mxGeometry width="126.44" height="70" as="geometry" />
        </mxCell>
        <mxCell id="gLKNbr4x9sqTOGluGkTr-17" value="Local client" style="text;html=1;align=center;verticalAlign=middle;whiteSpace=wrap;rounded=0;" vertex="1" parent="gLKNbr4x9sqTOGluGkTr-18">
          <mxGeometry x="50" y="50" width="70" height="30" as="geometry" />
        </mxCell>
        <mxCell id="gLKNbr4x9sqTOGluGkTr-19" value="" style="group" vertex="1" connectable="0" parent="1">
          <mxGeometry x="355.78" y="270" width="126.44" height="80" as="geometry" />
        </mxCell>
        <mxCell id="gLKNbr4x9sqTOGluGkTr-20" value="" style="shape=image;verticalLabelPosition=bottom;labelBackgroundColor=default;verticalAlign=top;aspect=fixed;imageAspect=0;image=data:image/png,iVBORw0KGgoAAAANSUhEUgAAASEAAACgCAYAAABDhtrSAAAAAXNSR0IArs4c6QAAAARnQU1BAACxjwv8YQUAAAAJcEhZcwAADsMAAA7DAcdvqGQAABSfSURBVHhe7d0HeBVV2gfwNyE9IYFQRCAhGFpoIfSisqu48qkIKoi4KyjigggWEFezSlmJ0gwiUqTJiiCyCCqLILiugAiIFAUpIkoNLQkhCekJ37wnJ26WjZJkztxzZ+7/53OfO2cSHvUw858zM6d4XTEQAIAm3vIbAEALhBAAaIUQAgCtEEIAoBVCCAC0QggBgFYIIQDQCiEEAFohhABAK4QQAGiFEAIArRBCAKAVQggAtEIIAYBWCCEA0AohBABaIYQAQCuEEABohRACAK0QQgCgFUIIALRCCAGAVgghANAKIQQAWiGEAEArhBAAaIUQAgCtEEIAoBVCCAC0QggBgFYIIQDQCiEEAFohhABAK4QQAGiFEAIArRBCAKAVQggAtEIIAYBWCCEA0MrrikFuO1ZhYSHlFxSI76KiIrHN31wuLDS+iwqJjFrgfVwZV4xv8efkN+8vLy8vL/FhPlWqUBUfH+Pbm6pU8SF/Pz/y9/cjP18/8vYu/h13JOqGP1xfon7ktvFddMWoo6IrxXVjHDpFxofrj39P/Fk+nEodUrxVVv1xHVXx9jbqgeumCvn4VDHqxZd8jY+/n7/x7SN/0x74/7FAHGPGtziuiuuLv0vKrOS7pE64vvgULPmUl7eX0X4wDiGuw+L68zG+vcmPjzHj+OLjjPfbgaNCKO1SOu3cs5cuJKfQhdRU8Z1sfGdezhLBwwfJfw6W4gDiA4T3lZxc/E/JCWUmhMRJxgeHPED4JOOTKyDA+BgHSFREBMU0bUwd2sRSdFQD+aetl3T2HB07eZLSMzLpUnr6L99cd2npGZSdnU15+fnF9SRPHt4uOZk4VUTocJ1xfRn1xvVYUkfipCpVX9cKIa4jPnl8fWQAGXUT4O9P19WqSU0bRVNsy+bUpmULsc8d8P/LN3u/o9Nnz9L5C8nG8XWRzicni/rLy8szji2jzoz6Kamv4uOMP8V19Es9Gd986lU+hIwEknVYcnz58IXOqD8+zvi7bp3rqGVMM2oV05RiWzQXge+OTIdQdk4Odb+7ryyZ8/WGf8qtytn+zW56Mn6sLNlHtbAwat+mNXVqG0etmzejBhH1LTtgps+dT++t+kiW7IGDqpkRSO3jYim2eQzFNGlMNcKry5+6VnZ2Dj30xFN04tRpuccefI2gat0ixrjotRHBHtO4EQUFBcqf6oUQcjPcQuAr/4ujnqSIenXlXnXsGEJX4yv//93yexrx2MNU3QhwV7JrCF0ttGpVGj54IPXu+Qftt214MO1m+JqwZ99+GvDnJ2jMhAT64ehP8idQgm+n12zYSPcMHELPv/wqfX/4B/kTKK/0jAyaNGMW9X9sOC1ZsUrcguuCEHJTfFBs2rqNho5+nj7fvJXy8wvkT6BEVnY2fb5lKw1+cjS9MW+ROLGgYrhFN3PBInGc6WrdIYTc3OWsLIp/ZTIteHeZ3ANX49bjslWraeATT9OBw0fkXqiI7w8dpqHPPk/fHTgo97gOQsgG+E3K2++toHnvLBVvWuB/8Zs6fvM36qUJ9IXRghRdBaBCUlIv0vAx8bRj9165xzUQQjbCQbR3/wFZgrKkpqVRfMIk2rFrt9wDFcGPAcaMe5nOJ6fIPdZDCNkIt4JemPgqnT5zVu6BsnBfnfiJk2nTV9vlHqiInNxcGjtpKuXm5sk91kII2Qx3ilu+2t6v2F2Bn6UlzplPFy9dknugIvbs+542b/9alqyFELKhdf/6wrhaueYqZWdnzp2jp+LHan39bFf8sD8hcQZlZGTKPdZBCNkQv4pesGSpLMFvOXTkKH2y8XNZgorgLhAbN2+RJesghGxq1dr14pYDrm3h0uW/jNmCitmybYfcsg6GbZQhvHo1uuu2HrJUTl5E+Uaznx/mpWdmGrcC5+nnEycoKytb/oJaPBborcTJ1LJZU7mnfFQN2wgLrUrVQkPFNg88Ld31n8e9XT0K3s+Hf8ebCouuiAefWUaAnruQ7LIgHfzHB2jYoD/JUuWpGrbBsyj06H6z2Oa/y/+uPy8x40LpE5PLXsY/fLrm5ecZ9ZYtnnedNY4z/m/hAdpWCAoMpE9XLBUDYq2CECoDD5Z8Z/YMWao87qvy7f7v6cNPPqXtu3bTxTS1D0njnx5Jfe64XZbKR1UIqTqpeSQ690vZ9NU2cevEsx5Y0WqpVbMGvTvnDdNjzVSFEIfOtnVqXjDwOfjVzl3GcbZedDrkWSNUSoh/jm77XXFgWgG3Yxbi6RbiWrWkcc+Nondnv0FdO7STP1Fj17f75JZ91a5Vk3rd3oOmjPsrLTGC/9knhlJgQID8qTopKam078AhWXIWrq9bb+pGMxIm0Jypr4rAVemzzV/KLWsghFyAw4gPjInxf6HO7dvKveY5aeAm38JVrxZGfXvdSfOnTxHTdajErdKlK1fLkjNxHfIcTMvnzabohlFyr3n7Dx6y7HaPIYRcKCQ4iMaNeUacbCqcSkqiLOP2wGmaRN9AC1+fJk4olXh2gmMnTsqSc1UNCaYRgwfJknncHYQnvrMKQsjF+JnEjZ06ypJ5x08686TimQL/9vxoMe+NSpu3W/+2xx1wi7uiLy1+DffUV/2cqTSEkItxk/m+XnfIknmnzpyRW87TMDKSnhk2RNSZKnv3ecbYO37wreo442lqedpfqyCENGjWqBHVDA+XJXNSLzp7WMLNXTorncqVu02YfCFsG82bNBYT35vFLSHuVmEVhJAG3A+k8Q0NZcmclNRUueVM/HxjwD29Zck87r+luquEu+I5pIMDzc8jzaFt5RQyCCFN6te9Xm6Zc/GSdQ8M3cUD9/amAEWv7bkP0uZtnjG6Xiz/o6CToQihIutajwghTWqEV5Nb5vD4HqfjZZO6KOza8K/NW+WWs/ESQNwb2yy0hBwqJDhEbplTWOAZMy2qetPDdu/bb+lJ5S74tt9L0UN9K5+jIYQ04VfQKuTmWffA0J00a9xIbpnHY/x4eIjT8Vgz/scsXoaKW6NWQQhpwgMSVfCQFz0UWV/tGmypF9PklnPxqsKFvMS5ScWrCVsXFQghTXLzVE1K5hkpVLtmTQoMULcUdKoHvCHjpaf5YxYvNc1LS1sFIaQJz4OsQoC/+sGe7qhkZVpVPGHaV55Rkqf9MIs7Pqq8AFwNIaRJRqaaaTOvnrfHyRop6lvF0jygJZSTk6NkPitedjskRM2LlLIghDRJTlHzYDTAwiuUu2mkcGS4qvp3ZyeTkpT0dOYLHU9iZxWEkCaqxnyFV1PT38gOGkZGyC3z0iwcFe4ueDI9Fa/Wo6OiLJnjqQRCSAM+MH748agsmcNT0XqKWjXUTdZ1yeHr1v98/IRYiVaFO3r8Xm5ZAyGkAa/3rWq4RXUPagnxbYGfn68smZOZeVluOdOcxUvkljmBgcWzNloJIeRiPMPfyjWfyJJ5detcJ7ecz8tL3atip65UwstBvTb7LWWtoI5xcUYQmR8E+1sQQi7Gcx1v2/mNLJkXFVFfbjkfD0NQ9TbQaWPueGDulzu+psFPjqb3P1wj95pndSuIIYRciHvpvjRpqnG1UvN6vk7tWhQSHCxLzsdDEHhQpgo8dEMnfi7ISy1X5sOryvA6+x+v30iLli4Xx1TfwUNp9NiX6cTpJPlvMO+GBpHUvVtnWbIOlvwpg6olf0rwLVh6ejqNGvs32n/wsNxr3i3GVWrSSy/IUvm425I/FcGtlweHjqCks+fknsoLCw2ljSuXyVL5qVryx90F+PuLJZIi69eTe6yDlpCFcnJyafO2HTRu0jTjSjVMaQCxuFbqehDbAfea9vZSc8iqeHXtZP379FI259W1oCVUhlo1wun+3r1kqXy4GrljGN9qXUxLo+NGs/inY8ctW36Yu9LPnpIg1jWrCDu3hPhY++OwkXQqyXwfK3/jSr9lzQeyVH5ObwnxfN49b/0djXv2GRH6roAQsilennfV3xdQeAWXD7JzCHHIDxz+FB07eUruqTyEUNn63X0nPTV0CPn5qukKUR64HbOpbh3bVziA4D/ylM1i4AwNG0SKJZbGjHjcpQHEEEI2xBNMPT30UVmCynDVrYY741v6aqGhNNRo0fJD6J63WNsz+tcghGzoxs4dqVbNmrIEleHr4qu9u+AlyaOjGtBD/e6jWZMTaMXCufSocWutYi7qykII2QxfvR64525Z8iz8+FLVPEw8UZcn4ZbfpLEv0Kf/WEbvzZtFIx97hNq2bknVwkLlb+iDELIZvmpV9I0Y/C9PawlxgCckzqQJ06a73UN1hJCNtG8TSw/e18djn2fwe1xVq2TwbYmn4Yn0vtz+Nd0/5HHRu3rPvv1u0V8KIWQTvGJr4stjxat5T3XlShHlF6gZbqFqNL4dcd+1Ldt30ONj4mnpB6uNOi2QP9EDIWQDXTu0pxmvTBBd6T0ZX7VVTNzOuJ+Qp+MwenPBYpowJdHSteavBSHkxrjn9rCHH6LXE8ZTzfBwuddz8Z0DT96uQlCgZywQcC0cRBu+2Ewz3lpIubl6+k4hhNwQP/Ppd/dd9O7cmfTIgPvlXigqKlR2xQ4OCpJbwFatXUcrPlY3BUhFYNiGm6geFkatW8RQp3Zx4vbLqsnK7Dxs4/SZs3TPoCGyZE5lZiBgqoZtcFeLbesq/vfArZX0zAw6nXRWzNDJ80irmq+cZ+l8Z9Z0uq5WLbnHNdASKgPf+gy4tzd1ad+O6tetKxbeqxFeXfSpqBoSLKa89Pf3E695+WDiNy38Kf3WirdL9nEPZ/59/nMhxp/neaF5LqDYFs1p8IMP0KI3XqN17y+hqeNfpL697vSo2RIr4sy583LLvNCq1i1hYyU+jniu7TatWtDA/n3pg8XzqHtXNXP+8MDrcZMTLRt0/WvQEipD6fmEuHp4tVS+AvG673l5+aLMneYKCguoIN/4FBaK3+O/vCtyRVSecoIDiD88GyAv+8yhxd98KxAUFOjyMTrMzi2h9z/8mF6bPU+WzHnUCP+hD1f8v193S6gsPFVtfMJk2rZzl9xTeXxMLnh9qtK1/68FLaFr4BDht1K87hK3iHiOFe723rTRDdSiaROKbdmc2sW2ovZtWlPHtm2oU9s48ekQFyv28c9aN48xfj9azFRX7/o6okWlI4Ds7sefj8st88KNlq1T8EUt/umR4pbeLH7wz3NguRJCCGzj4OEjcss8dxiuoFLtmjWoc/u2smTOPzd8JrdcAyEEtsC3/UePHZMl86o7LIS4xf6nfveKb7POnr9AhxWti1ceCCGwBZ5XulDhA1MnrtfGver5tl8FV96SIYTAFo4eU/c8iHFHUCfqouiWbPd3+6jARcM5EEJgC4d++FFumccBFFq1qiw5S0zTJkpuybhPVlZ2jixZCyEEtrDLuDKr0q1jB7nlPA3q1RWT1Zt17vwFSrmYKkvWQgiB2zvy0zGlD0pv7X6j3HIe7gISGGB+XBz3dluz3jVvyRBC4NaKiq7Q/CVLlfXi5T5fHdrEypLz+Pn5UbdO7WXJnDUbP3NJ72mEELi1E6dP084938qSebx2v4rbFXfWp+ftcsucS5fSRSvUagghcFv8dmbh0uViWIIq0Q2j5JZztY1tRSHBwbJkzncHDsgt6yCEwG0t++BD2vDvTbKkRud2al5huzN+OxYVWV+WzNl34JDcsg5CCNwOPwfi+W3efm+FGBisCk+N26WD80OIRUepafHtO4gQAg/CgZN2KZ1mL1pMk2bMUnobxu7ocYtj+wddrWWzJnLLHO4vdOzkSVmyBkII3AKPV5q16O/08MhnaMk/Vsm96vAUKr17/kGWnI9nblBl9dr1cssamE+oDKXnE3IaVfMJ3dS5I/XofpOYN6mEl3fxBG6l8Zuoq99G8QNnXuEhOSWVTiYl0f6Dh+mn4ycsHSbA8+PMS5xserEAd5xPqCxFxml914CBlJx6Ue6pvDq1a9PKRXPF638rIITKgBCqvPIOGTB52FXYrMkTqUNcG1mqPLuEEJvy5hxa+fFaWao8noDvnTdfp8j69eQetXA7BkpxuJTn40rcalMRQHbTvWsXJePIcozgPX7qlCyphxACR+MWB8/F7Iki6l5PIcHmVxXhW7vt3+yRJfUQQuBoIx4dRK1i1D2ktROekriagilf2Rdbv7KsBYsQAse6sVNHGnBvH/L2Nn9LYkfcL6pBPTXPcS6kpNLBI+qmUykNIQSOxKPJE/76nOPHif0Wfh50Y5eOsmTepq3b5ZZaCCFwHF4NZdbkBCVTWtjdTZ07KQtiXmyxsLBQltRBCIGjtIttTW/PTMQCkhLPIskzB6hw8nSSJevVI4TAEXx9fGj44IE0bcKLpjskOk3b1q3kljnJKSnKlpwuDSEEtsbPPXjqiukTx9Og/v3EQoDw31ooGkfGr+o/WrdBltRBCIFt8S3X3Ncm0dypr4rVb1V0zHOiqMgIuWXeR+s/Vf5cCCEEtsId8HiRvzlTX6H358+huJYt5E/g1/AzIVUBnZeXr3xhRNNjx/hB1dBn/yJL5iyeOV1uVc7+g4do2uy3ZKnyoiIiaPxzo2TJWZauXE1rP/ucCvLzxSBS8cnnT5745gUGXbXe1G/hns7cz6VqSDCFhYaKdf1v634zNYluqPW1e05uLo2fkkhnz5+XeyrH27sKLZoxTZasN2HqdPr5xAlZMueRAf2pe9fOsmSe6RACe+G/7gKjOZ1vhBA3qzl4CgqLg4j38z4OoczLlynjcpaYZzjzciZlZGYZn0zKzcszTsQcys4yPsYJmZtnfIzvnJxcyjY+JROjFxUVGj/Po5LrL+/nE5j5+fqSj/EJ8PejoIBAsS589WphYj31ekZLJ7JePdHPJygwQDzj4alKPbm/j9MhhABAK1xeAEArhBAAaIUQAgCtEEIAoBVCCAC0QggBgFYIIQDQCiEEAFohhABAK4QQAGiFEAIArRBCAKAVQggAtEIIAYBWCCEA0AohBABaIYQAQCuEEABohRACAK0QQgCgFUIIALRCCAGAVgghANAKIQQAWiGEAEArhBAAaIUQAgCtEEIAoBVCCAC0QggBgFYIIQDQCiEEAFohhABAK4QQAGhE9P8hFY36dYZ8HgAAAABJRU5ErkJggg==;" vertex="1" parent="gLKNbr4x9sqTOGluGkTr-19">
          <mxGeometry width="126.44" height="70" as="geometry" />
        </mxCell>
        <mxCell id="gLKNbr4x9sqTOGluGkTr-21" value="Registry Gateway" style="text;html=1;align=center;verticalAlign=middle;whiteSpace=wrap;rounded=0;" vertex="1" parent="gLKNbr4x9sqTOGluGkTr-19">
          <mxGeometry x="20" y="50" width="100" height="30" as="geometry" />
        </mxCell>
        <mxCell id="gLKNbr4x9sqTOGluGkTr-23" value="docker pull registry.metadata.box/bafy......" style="text;html=1;align=center;verticalAlign=middle;whiteSpace=wrap;rounded=0;fontStyle=1" vertex="1" parent="1">
          <mxGeometry x="414" y="190" width="200" height="30" as="geometry" />
        </mxCell>
        <mxCell id="gLKNbr4x9sqTOGluGkTr-24" value="" style="shape=flexArrow;endArrow=classic;html=1;rounded=0;entryX=0.5;entryY=1;entryDx=0;entryDy=0;exitX=0.5;exitY=0;exitDx=0;exitDy=0;" edge="1" parent="1" source="gLKNbr4x9sqTOGluGkTr-26" target="gLKNbr4x9sqTOGluGkTr-21">
          <mxGeometry width="50" height="50" relative="1" as="geometry">
            <mxPoint x="382" y="460" as="sourcePoint" />
            <mxPoint x="370" y="430" as="targetPoint" />
          </mxGeometry>
        </mxCell>
        <mxCell id="gLKNbr4x9sqTOGluGkTr-25" value="" style="shape=flexArrow;endArrow=classic;html=1;rounded=0;exitX=0.5;exitY=0;exitDx=0;exitDy=0;entryX=0.5;entryY=1;entryDx=0;entryDy=0;" edge="1" parent="1" source="gLKNbr4x9sqTOGluGkTr-20" target="gLKNbr4x9sqTOGluGkTr-15">
          <mxGeometry width="50" height="50" relative="1" as="geometry">
            <mxPoint x="297" y="450" as="sourcePoint" />
            <mxPoint x="423" y="350" as="targetPoint" />
          </mxGeometry>
        </mxCell>
        <mxCell id="gLKNbr4x9sqTOGluGkTr-26" value="" style="shape=image;verticalLabelPosition=bottom;labelBackgroundColor=default;verticalAlign=top;aspect=fixed;imageAspect=0;image=data:image/png,iVBORw0KGgoAAAANSUhEUgAAAH0AAACBCAYAAADt0LVHAAAAAXNSR0IArs4c6QAAAARnQU1BAACxjwv8YQUAAAAJcEhZcwAADsMAAA7DAcdvqGQAABR3SURBVHhe7Z0JeFvVmYa/eJFXyZYs77sdnA0MWVlC6AQopJ2wlGGbtrSkgcAkNEPLmgJhDU3L1pZMCNBM25QZHiikhYGGFAZCgATCkpDEMYmXeJVt2Za8yLJlyXbPf3QUa/Mu21e6981zH91zLDvS/e75l7PdGXHn/dsAFGRFmHhVkBGK6DJE1qKHhYchPDJClOSDbH16+twCpM3JRZQ6DqbqBlR+chiOXrv4aWgjL9FnzIA6ORF5i+dBk54kKp302e048cGX6Ggyw2HrFbWhiWxEj4xSYc6KcxCXlICwsKG9Wq+1B+V7voLZ0CxqQo+QFz08Ihwps/KQeXoBM+WxonZ4Bvr70VJRj/ojFegytYva0CF0RZ8BqPVazLpoEaLiPcWewcz8wIDX12Z1rFIUnNB76g6VMfHL0RdC/j4kRY9JiEfB0mJoUpN4hO6ORqtjRxJ6rFbY7TbeqiMiIhEdF8dFNxrq4GD+3Z2eji40HKuEoeSkz40RjISU6KrYaKTPzkPGmTOZ2OGi1gmJmpSchpj4eFHjn74+B0zNRnSaTejv6xO1TizGNlR9XoL2hhZRE5yEjOipRbkoPL8YM7yCNBI/LSsXsWoSm5nwUUKmvaH6JKyWTlHjhOotzSYce+ezoE3xgl50bXYqsufPYqmY1kdTXWoaN+dkvscDCWzt6oTZ2MTdgTuOHjsaj1eh+ovSoDP5QSs6+e3cJXORlJsuapxQS4+Ni0dqdu6wqdlYaWtpRltrs4+/73f04cSHLMWrbeLnwUBQil649EwkF2YhXOXZhRoZFYXUrBxERcfwCD3Q9DkcXHgz8/nucItg6uDi06vUCRrRKd9OnpmF7AWzecDmTqQqCglJeiSyYyqwdVtZsNeErg5PgQfYP+PxWhblV0hafOmLzlpsRGQEzrpqOcu3Y0SlE2rNGp0OyWmZ/H1TTY+1C/VVlTzt84C1fPL11Lnj8zMJIGnRYzROv63LTfMx1+rERCTqU7gpn076WFrX2WaCiQV73iled5sFDaUn0VBSKWqkgSRFj4qLYT47EzmL5rLAzE1sJryK+e2k1HTEqTWiUhqQ+Mb6WnSzFK/fq3VbzR0o/+hrWFraJNHyJSd69llFSD+9EJHRKlHjhMRPychGvCbBJxeXEraebhjrathrj6hxMtA/gK7WNhx56xMfizDVSEN01piT8jKQMa8AmjTPIU/qXFEnaqFNThl3vj0dUI+emaV5vTZP8fvsDhiOlLMcvwa9Xd2idmqRRJOJUKmQt2gONKk6UTNIVsFMJKdnBpXghFqrQ1bhaYiJ8+z2pZk6mcya6XJSRc3UIxk7SV2aPezO9+7abG0woNfLVAYD5NdNxkaW3g22ZqqjXL+/b3r9uqScIwU59h4bN3suv9fFAqOa8uNobWxgN4T0Z7SQsF0d7agp+4b34vX39/HOmz5HHxdbCj22koyIKBK2MeFpFgsFQIS5xYiaihNoN0l3hMtus6G+shwNNVXO7lr20UlsOkh4qSBJ0VVR0byXjUyhrcvKWn8vv2jU+psN9ahjF5ZakySaDYPEbqqrZRbpBI/eCWrVDvb56XNHRKp4n8JkdA2PB0mKnqBNQnpOHovadexChXGzTi2fIl8SmnrCqDU11FazFjV9Jp9uwnaTCbXMAlEHzcAAme8B9pmY32ZmngZ8NAlaZLNgNFGvZ+JLIxiVhujUitlFckENglqFjqVpJH4cy83J3/d29/Bgb8DhfC/3nax1GQ21p2KAqYL+79qKMmZ52P/NPpvLb9NBUNSemV8IfWYmZnjN3iFcbms6kE5LH+IaUOvQp6bzjpmomFguPp/q1G3jF5vE7hCtrYPlxpPd49XTbUUjWRl22HttXGwy5S6/Ta4pJSOL36w06jc0iugjEhMXh7SsHOjTMhBGJp8FSjaLFX1ijrqduQDqBq06UeqRJgUKErSF/f061rotFE9QnRCbbj5umVJSWW4+E/GJibzDSaoEjeguqM89I6+AD6WSz+xlonPxRX5PwV/dSWcETQHWhGFiU+rFUzBmSXgVE5mbcmFVNCz2yOR+O5mXpU7QiU6ER0QgUadHenYeYmLjeUvrZfk9BXtk7kkU8rnVTCiz0chvhPHQ3dWFWhYztDQauCU55bd5vj3AR/gy8vKhz8jgA0HBQlCK7oK6b5MzMpGZW8BTPBLcZnXm9y5ajQ28c4f8vTt0o3R1dvB4wO6VAXBrwdJCQ1UFbLYep9jsb7v8Ng34pGTnIp0JHh0bJ34reAhXZc99SJxPGzSowqc/iRWkZMJJxNFAvpR+nyL8iIhw3iJJNKe5n8EjZxKKBKaWGxY2g90ITcz/18DS1sbr21tbuJ9m72avHSznruZ/h+CmnLVsirtI7ESdDqmZOYiOGduULPoM7tOq2+qM6GqdntUzQd3S3SH/Tnl9Zl4h1BoWSDHIp5O/H2AtlOjusqCxtkZ07PCqU1D/Pi10MDc3nUrBHHanKSdxyZTnFs2GjmUSwb68OWREd4emPpO/j4vXcPF6mMkns08mekTY+7nf5jfKALM4Kj7ZMiO/IKCza6eTkBSdoBxZn57Bh2Upd6bpyTSQQwM6/nJ5ujnopnAIv01DuRSNZ88sQqxaPSZTLnVCVnQXsfFqpLGgi0w/cWoI120NOplzHqSJXjISnFo25d2hSMiLTvBWOuDWullLtlN+38Xye+a3fca3qRs4REy5P2QhOkHpnTd8fNtPHzgJHkrm3BvZiD7aFJCgbl5F9BAgOiaW99+PBEXoFP0roocAJCKthKEJDcNBXaqjuTmCGdmITpCvzsjN59Op2V0gap2Q0DR7NV507IQyshKdoBYfr05gfttTdI1OH1SDJhNBdqIrKKLLEkV0GaKILkOkI3ropsVDMH1fWBqis0jafdiyf2D6ZopOGuw7uX8tj3X3U4wkzTtNROQTHUIEmsnT3GCY1oUZ7khSdIfDztd202soILWbWJKiE7RdJ01vCnZoTlxnm1mUpIFkRSdoImOwQztR0CQNKSFx0S2wBrHwtGrVaKgXJekgCdFp6tLx97+AsayWz09zp8VQh6b6WvRMwlKlyYJaNm2iQEugvDdS6DZ1oOLjQ2gsrRI1U48ktxSbffESxGrjeSrnjjpBC40uCRERE5uCTH62vqqCixMZFc1vfdpLNk6tFu8YH/T3aEsxWqvuTZ/NzveUq/+6TNRMH5IUnYZA1Sla5CycDVWc55ag4eERTPwEJCSNf93YZIhOK2lbGw2w0fo5N2tFo3qGkko0sZZNc/ClgCRFdyfltBykzMqBKtZz2FNF+8Hq9HzT/rHOcgmk6BSotbe2+kToNM3aXN2Iqs+P8WXVUkLyorvIOWsWkk7L9BGY5r7RFOexLEQIiOisNZubm/leON702+0o2bUfVrPnAwKkQtCITsQkqpExLx+aDL2H+HxihIaZfNbyaUXrSExU9A6zGR2mFtbKPVuwo6cXVQdK0HrSIGqkSVCJ7oI2GcwonsluAk/TTq1dm5zKN/n3foaLO+MRnbIKWhtHy5Z9nvLAgrS26gZuyp3LoaRNUIpO0FOYdFmpyFo0y0dgmvxIq1NihlhGPFbRyT/Trla0wtU7pexoNKF871eS89vDEbSiu4iMiYK+IAMpRTk+q0lpSRPtVKWKZsK6MVrR6X0UoLW1tvBBE3csTOz6kgq+5DjYCHrRXYRHReK0ZfMRw/J772CP1rHRUx9cwd5IolNrpn1raA8b72e20Fq4hoMnYPhm+jpXJkrIiE7QGDU9SzV7wSz+YB93aFEibQBE+8OQuR5KdFqn3tLYwB/Z4W7KaQlUzRfHYK5p8tjpIhgJKdHdoT3jk3JToYrzfPIDbS5Ac9tNzY1cVJfo9CivsPAItJuaPda30Xva65tR+0UprO3BP+pHhKzoBAV4mcWF0M/M8jH5Llyi+4Na9OE39rK827ndZ6gQ0qK7iNcnQl+YBR1r+d74E50icXqorvFEDd8rLtSQhegutFkpyJpfxCN+F+6ik1lvb2jG8fc+d1aEKLISnYiMjkJiZjIL9orYt59xSvROoxk1B0pgmaYdn6YS2YnuTt7Z85CQnozGY5VoYqZcLshadLkyRNyqEMooossQRXQZooguQxTRZYgiugxRRJchiugyRBFdhiiiyxBFdBmiiC5DFNGniXk5mVhSVICClGTER0/tTpUBH2XTJ2pw3+rrRMmJrdeOJ3fsREt7h6hxUpiegtu+f4UojUxPby+s3T2w9thQ19SKL0tOoNzQJH46PDp1PB5Y8++iFBi+KC3D//x9jyj5Eq2KxLIz5+LCJWdiXmEOkrUJ0LODXunJUu60mNtx/GQdjlZUY+f/78enJcdPPewv0ARc9IKsNBx+ZYsoObFYu3Huj+/ESS+Bls4rwu4XHhel8fFNZS1e/Msu/O3jA2gytYlaX3JT9Cj56zZRCgwvv/Mhbn70WVEahKbjzc3LxqZ1N+Cic+YPOT9vON7/9BDW/uo51DfT05oDO/od9OZ9dkE2nrpnDT75wxP4yWUXi9rp5dbvXYp3t23CxecuGJfgxIXnnIUPf78Z32U3TaAJGZ+eptfimbvW4N5VV4ua6WH9dZfhiTtuhiY+VtSMn9QkLZ7fuB6XLV0sagKDJEXvtTt4HOB92Fk9PRxvqM0Fw8PDcP9N1+OWq1aImpGxO/rGfdBiCXcK0lJw7+prRGkQMs/0+f/63ie4/ZfbsHLtRsxceRPyv7MKl6/biHue2o6y6nr+3bxJ1MTjkXU/RGwAgz1J+vQr1j+Mo5W+c9Y0cbHQJqihZRfiokXF+MG/LkeC2neR4sm6Rpxx3W2i5GQon/7gszuw+8AhURobbZYu1BlbRQl4/hfr+Gfy5vnXdvGjor5xyOAsKjICC+fMxPYH/xPZaZ67bNBNc8cTL+CFN94VNRNDki29k0XoTSya9T7K6hpwgEXsu/d/hbuf/SPO+9EdeGvvAfFbg+SzG+/iBWeI0vDY7HZ+g43ncBc8MT4OyxbME6VBStn7frn9VZyoNQwbjduYFdt3+Buse3wrut2eGUdQXHDtpRcgfAwbLwxHUPv0amML7t+yg6VyvjtL/sviYnE2NZAVio/1XEJFbPnfN9HSMfodKfYcLMFbez4VpUGWnDEL2cxaBYKgD+TKmcl8bfdeURrk/IW+rW4yUTHzHOlnF4wj5dXibHRQnPDrP+2Eo8+5uUFnlxVHy6qw5/PD0PpxZeMh6EUnjrCL4s185h/JT04V9IhuOryZnZspzkZPaXUdfrppK+Zfsw7Z37kR59x4Jy7/+WM4WHZSvGNihITodU0t4mwQuvwxfp66ONVcs+ICcTY2/rz7Q5SxwNcxCWvpQkL0OQXZ4mwQc4cFbcw0ThWm9k60sf/Tm2+fuwC3fO9SUZIGISH66TPzxNkg+w4eE2dTQysTfT+Lvv3x65+vxq7fPYgVS84SNdNL0Is+Jy8L373At8dq36GpFZ06Ox554WU0m3wXQFKqtWzhGXjtmftR984f8d7WR7Ftw1qsv24lli84nQ8GTSWS7Jy58OYNOHBs+D1U6WF6aUlaPL7uBlx9yTJR64R6thZdv575xEZRM3TnzMHSCnE2NmiE7/ZntovSIHf94Eo8uPaHojR69rOb9I3392PXZ4eYa+pEu8Uqr1G2oUQnoUm8OfnZuGTpQlyx/Bw+TOkNpTgU8boT6FG2V/6+B6s3eX5PQsXStpXnLcTWB27zm7ePBA0bt5o78DHL1+/6zXYWlwR+92tJil5R43/HxRTWstVee8j446qfPYZ/eHWtTpXoLhazlPGeG6/G0vnzRvWZ/VHX1IyHn38ZL/vph5gIkvTphTkZfo+RLh71Ua99bIuP4NPB56XluPqezZh95Rr8bPM27P+61DlIM4ax8azUZLy4cT02sJsnkAT9JAoXB4+V4xf/tQOfsIvr78IO1dLLqsb35IWPvzqKnz71oiiNDr1GjcLsdOSkp6C4MBdnzspHcVE+n00zHB3Mv9/88G/x9r4vRc3ECFrRaVDC2NqGmgYj/vTme9i551P0eu3q6M5Qot/79HZseX2XKE0Ps3MyceHiYlz2rbNxdvFs3qXrjaHZhPN+fAdaWGo4USQp+q0P/U6ceWK12WDq7ILZYoGZvXayIMfS3c3N5khIWXQXUZGRuP7i8/H03WsQpYoUtYN8f8MTeHPvZ6I0fiTp0/ccPIqX3t3rc+xkX5h+9jWLzmsam5nwllEJHizQMO9Luz/EtlffFjWe5KSP/2kW7oREj5wUoFnA3kfCOKZMUW5+33Mv+YypE94P+h8viugB4sCfn0bV2//tcex88j5Eek11Hi2mNs/p4oFEET1AfP1NpTgbhHoMxzO3jTp4dMxSTBaK6AFi36FScTYI+eDVK8c+LfuM/BzERE3esLAieoD4GwsyLV5bgtPctjtXXY0FRQWiZmRort0Td6wWJU9aAmTyFdEDRGOrGZV1DaI0CM1/f+nxu3DLlZfw4G64yY2FmWnYeu+tfD6cNxTYHThyXJQmhiJ6gOi0dmPVxmfQ6qc1kpl/8s6bse8PLM9+5n48t2EtHrjpOqxhN8J9q65hQv8H/u83G7Hn95tx+fJzxW958tCWHXw+YCBQRA8gx2sN2Lz9Vb/pFpn6jJQkfGtRMW5YeSHuYWI/fdcabGDi/+iyi7B8cTGfz++P19/9GC+8GZg574QieoB5buc7uPb2R9HeGZinQe/8x0e48eHfBrQTShF9EvjgcCnO/8ndfM67eZx95eU1Btz6yLO4ZfNzAV+1GvC+dwpWHvBan078asfrfNDAneKCHKz2M2lw0/ZXYAxw50SaLhEbmEn15qOvjuK1D/aLUuDRxsZi1RXfxrUrlvEFEWp20Lp1Wp8eER7Oe+CoFduYS6B44ERNPf6y+yO8+dEB9NiHHkCaCAEXXcE/NAc/LiaaH5HsPIJF8eFMdFrcQAsbaNEmuYTO7m7WssUvTRKK6DJE8ekyRBFdhiiiyxBFdBmiiC5DFNFliCK67AD+CSO7+Ha59HvBAAAAAElFTkSuQmCC;" vertex="1" parent="1">
          <mxGeometry x="387.49999999999994" y="450" width="76.55" height="79" as="geometry" />
        </mxCell>
        <mxCell id="gLKNbr4x9sqTOGluGkTr-27" value="Docker Desktop" style="text;html=1;align=center;verticalAlign=middle;whiteSpace=wrap;rounded=0;fontStyle=1" vertex="1" parent="1">
          <mxGeometry x="10" y="430" width="80" height="30" as="geometry" />
        </mxCell>
        <mxCell id="gLKNbr4x9sqTOGluGkTr-28" value="Kubo Node" style="text;html=1;align=center;verticalAlign=middle;whiteSpace=wrap;rounded=0;fontStyle=1" vertex="1" parent="1">
          <mxGeometry x="330" y="420" width="80" height="30" as="geometry" />
        </mxCell>
        <mxCell id="gLKNbr4x9sqTOGluGkTr-29" value="" style="shape=flexArrow;endArrow=classic;startArrow=classic;html=1;rounded=0;entryX=1;entryY=0.5;entryDx=0;entryDy=0;exitX=0;exitY=0.5;exitDx=0;exitDy=0;" edge="1" parent="1" source="gLKNbr4x9sqTOGluGkTr-26" target="gLKNbr4x9sqTOGluGkTr-1">
          <mxGeometry width="100" height="100" relative="1" as="geometry">
            <mxPoint x="133" y="460" as="sourcePoint" />
            <mxPoint x="133" y="350" as="targetPoint" />
          </mxGeometry>
        </mxCell>
      </root>
    </mxGraphModel>
  </diagram>
</mxfile>
